<svg width="1672" height="1376" fill="none" xmlns="http://www.w3.org/2000/svg"><path fill-rule="evenodd" clip-rule="evenodd" d="M1332.5 1.47c-13.66 2.612-86.26 23.161-112.5 31.844-40.78 13.494-118.19 43.724-155.5 60.725-65.545 29.87-88.113 44.02-101.315 63.523-5.778 8.536-25.777 57.669-33.148 81.438-5.372 17.323-9.665 29.22-12.79 35.449-2.317 4.618-2.575 4.823-3.865 3.059-1.704-2.33-1.899-22.941-.335-35.414 1.325-10.562 6.75-31.604 11.498-44.594 5.259-14.39 6.476-18.5 5.475-18.5-2.536 0-18.649 16.704-24.596 25.5C898.105 215.324 884 241.666 884 244.51c0 .378-.643 2.106-1.429 3.839-2.139 4.717-8.281 24.423-11.153 35.785-3.049 12.062-6.236 32.778-7.093 46.116-.345 5.362-.989 9.75-1.431 9.75-1.783 0-2.391-8.735-2.331-33.5.054-21.979.395-27.856 2.205-38 2.48-13.895 6.489-28.216 11.479-41 1.932-4.95 3.353-9.176 3.158-9.391-.857-.947-12.116 8.935-23.53 20.655-28.317 29.075-53.087 62.2-70.093 93.736-8.436 15.644-16.983 33.949-18.208 39-.401 1.65-1.329 4.35-2.064 6-5.069 11.389-9.033 25.318-11.168 39.246-1.936 12.631-2.443 39.056-1.117 58.254l.725 10.5-3.003-7.5c-4.517-11.281-7.611-22.67-9.994-36.776-1.835-10.871-2.095-15.754-1.799-33.868.19-11.641.014-20.961-.391-20.71-1.578.976-12.592 17.258-16.813 24.854-12.58 22.636-22.509 52.992-26.489 80.986-1.71 12.02-1.926 46.551-.387 61.837 1.337 13.282 1.016 15.443-1.585 10.677-4.91-8.999-11.692-34.156-13.02-48.302-.569-6.055-.813-6.659-2.226-5.5-2.152 1.766-9.313 12.956-12.993 20.302-7.436 14.847-14.743 42.535-14.054 53.257l.304 4.743h67.977l6.69-11a7286.02 7286.02 0 0 0 15.41-25.5c8.867-14.746 14.977-24.494 26.173-41.759 3.438-5.301 6.25-9.732 6.25-9.847 0-.628 39.822-59.599 46.523-68.894 7.785-10.798 35.805-48.217 46.426-62 4.98-6.462 22.924-28.471 28.258-34.66 1.261-1.463 3.868-4.597 5.793-6.964 21.105-25.953 39.93-47.807 52.893-61.405a3528.205 3528.205 0 0 0 17.014-18c35.383-37.763 75.113-74.939 100.593-94.141 11.26-8.481 31.35-21.383 31.9-20.485.26.414-2.46 2.917-6.03 5.563-6.23 4.608-8.33 6.33-21.86 17.948-32.11 27.554-66.23 64.45-126.13 136.394-7.154 8.593-14.953 18.2-17.65 21.74-.423.555-1.885 2.36-3.248 4.01-1.364 1.65-2.48 3.305-2.481 3.679 0 .373-.57 1.273-1.265 2-2.456 2.566-18.616 23.683-21.407 27.973-1.556 2.391-3.729 5.295-4.829 6.453-1.1 1.158-4.456 5.545-7.458 9.75S883.337 378 883.036 378c-.301 0-1.108 1.265-1.793 2.812-.684 1.547-2.032 3.69-2.994 4.763-1.803 2.011-10.916 14.237-15.223 20.425-1.34 1.925-2.817 3.95-3.282 4.5-1.447 1.712-19.625 27.454-27.495 38.935-4.122 6.015-9.015 13.098-10.872 15.74-1.857 2.643-3.377 5.011-3.377 5.264 0 .253-3.262 5.325-7.25 11.272-3.987 5.946-7.774 11.707-8.415 12.8-.64 1.094-4.288 6.939-8.105 12.989-3.817 6.05-8.207 13.25-9.754 16-1.548 2.75-3.355 5.675-4.016 6.5-.66.825-2.467 3.75-4.015 6.5-1.548 2.75-4.332 7.7-6.186 11s-4.668 8.025-6.253 10.5c-1.585 2.475-3.52 5.625-4.3 7-.78 1.375-6.699 11.713-13.154 22.973-23.216 40.497-25.118 44.103-53.828 102.027-23.1 46.605-31.724 64.419-31.724 65.529 0 .35-14.058 31.624-17.518 38.971-5.734 12.174-15.103 32.976-17.952 39.859-1.885 4.553-4.751 11.173-6.369 14.71-6.294 13.756-8.441 18.596-10.176 22.931-.99 2.475-4.317 9.774-7.393 16.219-3.075 6.446-5.592 11.95-5.592 12.231 0 .281-1.8 4.354-4 9.05-2.2 4.696-4 8.704-4 8.906 0 .202-1.975 4.581-4.388 9.73-2.414 5.15-6.201 13.639-8.416 18.864-2.215 5.225-5.366 12.425-7.001 16a680.939 680.939 0 0 0-6.161 14c-3.669 8.636-4.953 11.574-8.082 18.5-3.224 7.14-16.803 38.03-22.417 51-2.619 6.05-5.557 12.8-6.529 15-1.741 3.94-8.35 19.35-19.376 45.19-3.097 7.25-5.63 13.43-5.63 13.72 0 .29-1.087 2.91-2.415 5.81-2.743 6-7.585 18.63-7.585 19.79 0 1.35 16.154 9.24 17.06 8.33.754-.75 20.121-45.16 30.897-70.84 2.077-4.95 7.947-18.9 13.044-31 5.097-12.1 11.726-27.85 14.731-35 17.558-41.77 18.983-45.143 31.255-74 12.63-29.698 13.518-31.811 24.89-59.293 5.075-12.26 16.11-38.135 24.523-57.5 8.413-19.364 16.991-39.257 19.063-44.207 2.071-4.95 6.219-14.4 9.219-21 2.999-6.6 5.84-12.9 6.313-14 3.649-8.485 26.639-56.746 36.918-77.5 6.946-14.025 14.604-29.775 17.017-35 9.319-20.176 13.785-29.226 24.674-50 6.198-11.825 12.409-23.525 13.803-26a623.91 623.91 0 0 0 4.685-8.5c1.183-2.2 3.615-6.475 5.403-9.5 1.788-3.025 6.083-10.45 9.543-16.5 11.342-19.83 26.949-45.407 40.567-66.48 15.104-23.374 51.799-76.436 62.339-90.145 1.956-2.544 4.456-5.888 5.556-7.431 1.982-2.781 21.516-28.511 38.126-50.218 18.067-23.611 44.063-54.936 64.504-77.726a226.5 226.5 0 0 0 4.75-5.5c1.13-1.375 2.07-2.018 2.09-1.428.02.589-2.96 4.639-6.61 9-10.172 12.159-28.147 34.858-35.97 45.428-9.62 12.999-38.136 53.361-42.389 60-.529.825-2.798 4.2-5.043 7.5s-6.158 9.15-8.694 13l-9.438 14.323c-2.654 4.028-4.826 7.502-4.826 7.721 0 .218-2.192 3.672-4.87 7.676-8.625 12.892-20.604 32.023-26.162 41.78-2.977 5.225-5.71 9.725-6.074 10-.364.275-2.012 2.975-3.661 6a642.41 642.41 0 0 1-6.766 12 1835.511 1835.511 0 0 0-7.452 13c-2.026 3.575-5.044 8.75-6.706 11.5-7.27 12.029-17.277 29.588-20.801 36.5a2449.583 2449.583 0 0 1-7.201 14c-1.858 3.575-7.634 15.725-12.836 27s-10.297 22.138-11.321 24.139l-1.862 3.639 19.606.684c28.751 1.003 133.247-.154 138.364-1.531 5.867-1.58 18.818-8.249 28.242-14.542 9.941-6.639 19.831-14.392 19.184-15.039-.268-.267-2.894.256-5.835 1.163-22.156 6.833-23.875 7.216-23.792 5.297.054-1.243 6.211-6.434 13.918-11.734 1.939-1.333 3.75-2.707 4.025-3.053.275-.346 2.137-1.623 4.138-2.838 9.407-5.713 7.353-7.024-16.138-10.303-4.125-.575-13.463-.804-20.75-.508-7.287.296-13.25.308-13.25.027 0-1.83 9.633-14.052 17.704-22.46C967.491 494.325 982.978 488 1013.67 488h15.54l5.78-5.906c6.42-6.568 10.6-14.434 13.89-26.158 1.17-4.16 2.12-8.048 2.12-8.641 0-2.721-23.55-16.827-40.29-24.133-14.446-6.303-13.47-5.956-25.71-9.147-10.248-2.671-10.406-2.756-6.597-3.516 5.354-1.069 25.277.027 35.597 1.958 4.68.875 13.07 2.993 18.66 4.706l10.16 3.116 4.39-3.599c8.97-7.349 48.63-50.973 58.79-64.667 1.38-1.853 3.45-4.527 4.61-5.941 4.78-5.831 20.54-30.225 25.24-39.072 5.04-9.505 9.47-21.775 10.73-29.731.37-2.327 1.18-4.627 1.8-5.111.61-.485 4.39-1.858 8.39-3.053 13.16-3.935 29.27-13.603 37.51-22.503 4.03-4.357 3.6-5.453-1.45-3.692-4.53 1.578-21.26 1.311-28.83-.461-7.88-1.844-13-3.621-13-4.509 0-.362 4.4-1.158 9.78-1.769 16.66-1.895 44.22-9.947 44.22-12.92 0-.78-4.74-3.981-13.88-9.385-2.11-1.242-3.03-2.354-2.45-2.935.51-.515 4.88-2.079 9.69-3.476 17.49-5.07 26.2-10.966 37.93-25.677 9.28-11.646 11.8-15.416 20.13-30.137 7.74-13.677 16.19-26.631 20.6-31.573 2.93-3.287 2.99-3.504 1.27-5.146-2.77-2.655-13.66-7.946-17.71-8.602-1.99-.324-3.87-.979-4.16-1.455-.3-.476-1.45-.865-2.56-.865-1.16 0-1.86-.537-1.65-1.25.75-2.466 9.71-5.866 20.4-7.737 14.89-2.605 23.35-4.65 32.84-7.941 28.4-9.85 44.57-23.87 37.67-32.65-1.15-1.461-1.86-3.035-1.57-3.498.28-.462 3.2-1.82 6.48-3.016 3.28-1.197 5.97-2.481 5.97-2.853 0-1.069-3.97-5.055-5.04-5.055-.53 0-.96-.382-.96-.848 0-.924 4.34-2.958 13.16-6.167 6.82-2.483 8-4.59 4.34-7.739-2.2-1.896-2.41-2.478-1.28-3.608 2.47-2.468 18.05-7.475 39.28-12.625 11.55-2.801 22.12-5.366 23.5-5.699 6.92-1.677-7.62-2.585-46-2.872-31.59-.236-43.17.01-48.5 1.028ZM1 445.521v6.521l336.75-.271 336.75-.271.298-6.25.297-6.25H1v6.521Zm1092.67-5.854c-.37.366-.67 3.291-.67 6.5V452h579v-13h-288.83c-158.86 0-289.14.3-289.5.667ZM255 498.46v3.459l8.192.291 8.192.29-.275 25.25-.275 25.25h8.132l.267-25.25.267-25.25 7.25-.294 7.25-.294V495h-39v3.46Zm170.452-2.197c-.266.695-.365 13.858-.218 29.25l.266 27.987h32l.311-3.218.311-3.217-11.811-.283-11.811-.282-.285-10.25-.285-10.25H453v-7h-19.078l.289-8.75.289-8.75 11.25-.283 11.25-.283V495h-15.531c-11.591 0-15.655.321-16.017 1.263Zm-87.938 3.987c-.334 2.337-.474 15.05-.311 28.25l.297 24 3.75.31 3.75.311V527h24V553.115l4.25-.308 4.25-.307.266-28.25.265-28.25h-7.968l-.281 11.75-.282 11.75-12.25.281-12.25.281-.014-9.781c-.017-12.729-.457-14.281-4.041-14.281-2.558 0-2.879.398-3.431 4.25Zm417.203 110.466c-1.43 5.931-3.094 13.934-3.699 17.784-.604 3.85-1.534 9.7-2.065 13-.532 3.3-1.134 7.759-1.339 9.909l-.373 3.909 31.129-.63c18.738-.379 31.727-.257 32.63.305 1.316.819 1.543 14.827 1.846 113.97L813.192 882H869V654h62.813l6.704-7.242c8.758-9.459 20.253-23.79 24.853-30.984 3.1-4.849 8.63-14.631 8.63-15.265 0-.107-48.304-.28-107.342-.386l-107.342-.191-2.599 10.784ZM1210 600.677c-24.41 3.946-33.39 6.912-53 17.493-14.18 7.653-38.67 30.511-48.48 45.253-12.15 18.263-20.03 38.901-22.58 59.118-1.53 12.169-.68 39.284 1.56 49.459 7.46 33.989 27.09 65.554 54 86.817 7.49 5.917 22.68 14.909 31.76 18.794 9.98 4.272 27.06 8.886 40.24 10.871 28.3 4.263 61.44-1.26 87.84-14.641 6.73-3.413 22.67-14.255 29.4-20.009 23.61-20.161 41.9-51.917 48.72-84.579 7.74-37.087.23-77.392-20.13-108.037-5.62-8.463-19.47-23.293-29.33-31.405-18.44-15.173-44.8-25.965-70.21-28.748-9.13-.999-44.31-1.272-49.79-.386Zm-1205.333.99C4.3 602.033 4 665.258 4 742.167V882h56v-69.707l35.25-.601c19.387-.331 38.4-1.083 42.25-1.671 36.576-5.584 62.416-24.15 76.975-55.305 14.446-30.913 13.546-72.211-2.249-103.216-8.239-16.173-22.006-29.977-37.726-37.825-14.63-7.304-28.335-10.308-53.5-11.726-18.161-1.023-115.357-1.259-116.333-.282ZM273 741.316v140.63l32.75.277c18.013.152 61.325.277 96.25.277h63.5v-54l-68.765-.257-68.764-.257.264-30.207.265-30.206 61.748-.037 61.748-.036.002-28.25L452 711H329.038l-.55-2.25c-.303-1.237-.424-13.95-.269-28.25l.281-26 66.75-.257 66.75-.257.156-23.243c.086-12.784.214-24.48.284-25.993l.128-2.75-65.034-.008c-35.769-.005-78.421-.301-94.784-.658l-29.75-.648v140.63ZM500.806 624c-.107 12.65-.22 24.462-.25 26.25l-.056 3.25 34.5.5 34.5.5.5 114c.497 113.304.512 113.998 2.5 113.671 1.1-.18 2.553-.862 3.229-1.514 1.472-1.421 10.85-26.756 18.588-50.215 9.656-29.274 17.672-52.866 18.669-54.942.528-1.1 2.991-8.075 5.474-15.5 2.482-7.425 4.969-14.281 5.526-15.236.644-1.103 1.014-17.982 1.014-46.236v-44.499l30.141-.264c25.597-.225 30.259-.491 30.919-1.765.428-.825 4.582-7.8 9.232-15.5 4.649-7.7 9.191-15.35 10.092-17 .901-1.65 3.639-6.15 6.085-10 2.445-3.85 4.465-7.337 4.489-7.75.023-.413-48.333-.75-107.458-.75H501l-.194 23Zm485.329 97.75c.075 66.412.412 129.75.75 140.75l.615 20 27.75.266 27.75.266V601h-57l.135 120.75Zm437.855-36c.01 46.612.31 109.838.68 140.5l.65 55.75H1476l.08-6.25c.04-3.437.22-8.5.39-11.25s.61-29.525.97-59.5c.37-29.975.87-61.475 1.11-70 .24-8.525.44-17.932.44-20.905l.01-5.405 2.12 1.905c1.17 1.048 5.99 6.855 10.72 12.905 4.73 6.05 10.63 13.537 13.13 16.638 2.49 3.101 5.65 7.113 7.03 8.914 1.38 1.802 6.78 8.792 12 15.533s14 18.164 19.5 25.385c5.5 7.22 16.07 20.943 23.5 30.495s21.36 27.53 30.96 39.951L1615.42 883H1669V601h-55.14l.22 93.01c.13 51.156-.1 93.344-.51 93.75-.9.905-3.2-1.833-18.82-22.399-6.74-8.877-21.7-28.384-33.25-43.348-11.55-14.965-21.9-28.424-23-29.91-2.68-3.617-13.54-17.526-27.03-34.603-6.08-7.7-13.96-17.797-17.51-22.438a2562.97 2562.97 0 0 0-10.46-13.575c-2.2-2.825-6.64-8.591-9.87-12.812l-5.87-7.675h-43.79l.02 84.75ZM122.5 654.162c15.828 2.056 27.189 7.125 35.34 15.767 4.949 5.247 7.87 10.751 10.669 20.1 5.607 18.735 1.351 39.102-10.824 51.791-12.32 12.841-34.196 17.321-74.906 15.342-11.396-.554-21.183-1.294-21.75-1.644-.684-.423-1.029-17.74-1.029-51.631v-50.996l27.75.181c15.262.099 30.9.59 34.75 1.09Zm1126.27-.132c21.08 2.644 37.66 11.156 52.73 27.08 15.99 16.894 23.5 36.195 23.5 60.39 0 13.079-1.62 21.965-6.04 33.121-14.23 35.917-44.73 58.399-81.56 60.105-25.06 1.161-46.48-7.199-65.76-25.657-17.02-16.291-26.82-37.646-28.3-61.637-1.87-30.269 17.19-65.344 44.23-81.392 4.44-2.635 9.16-5.127 10.5-5.538 1.34-.411 2.88-1.067 3.43-1.459 1.52-1.083 13.25-3.983 20-4.945 8.62-1.227 17.84-1.25 27.27-.068ZM635 696.742c0 17.569-.283 37.527-.628 44.351-.432 8.53-.305 12.095.405 11.407.569-.55 2.909-6.625 5.2-13.5 3.847-11.543 19.774-45.471 29.913-63.721 2.206-3.972 3.696-7.412 3.311-7.644-.386-.232-6.101-.709-12.701-1.059-6.6-.349-15.038-.893-18.75-1.207l-6.75-.572v31.945Zm139.5-30.653c-6.05.408-12.8 1.216-15 1.795-3.812 1.003-3.726 1.03 1.82.567 3.202-.267 8.602-.056 12 .468 3.399.524 10.23 1.448 15.18 2.054 4.95.606 10.462 1.36 12.25 1.676 3.233.571 3.25.552 3.25-3.538V665l-9.25.173c-5.087.095-14.2.507-20.25.916Zm111.355.65c-5.859.307-6.714.608-7.236 2.554-.757 2.822-.791 7.707-.054 7.707.738 0 17.435-10.204 17.435-10.655 0-.19-.787-.257-1.75-.149-.963.108-4.74.352-8.395.543ZM755 679.42c-11.106 2.926-19.184 5.594-20.787 6.865-.707.562-6.165 10.739-12.128 22.618-10.81 21.532-18.363 39.217-21.611 50.597-.942 3.3-2.81 8.636-4.151 11.858-1.342 3.222-2.198 6.101-1.902 6.397.296.296 2.235-.582 4.309-1.95 7.415-4.891 43.143-20.104 57.77-24.598 5.5-1.69 16.3-4.693 24-6.674 7.7-1.981 16.138-4.297 18.75-5.148l4.75-1.546v-54.673l-5.022-1.077c-2.762-.593-8.274-1.553-12.25-2.134-3.975-.581-9.666-1.484-12.645-2.006-7.3-1.279-9.199-1.133-19.083 1.471Zm123.242 30.533.258 5.953 3-2.828c1.65-1.555 4.98-4.234 7.4-5.953l4.4-3.125H877.985l.257 5.953Zm-74.418 52.557c-.281.28-7.218 1.387-15.417 2.46-50.408 6.596-82.11 18.008-104.256 37.53-6.408 5.648-8.435 8.158-10.497 13-2.557 6.003-14.352 36.934-19.829 52-10.833 29.796-31.151 74.017-37.217 81-1.433 1.65-2.606 3.407-2.607 3.905-.001 1.074 2.407-.866 10.499-8.457 3.3-3.095 11.625-10.311 18.5-16.033 6.875-5.723 12.725-10.633 13-10.91 3.581-3.615 24.851-18.813 33-23.58 11.709-6.848 16.145-12 23.953-27.813 12.257-24.824 23.241-39.142 48.317-62.976 17.853-16.97 27.671-25.291 36.98-31.344 5.304-3.449 6.75-4.914 6.75-6.84 0-2.473-.244-2.875-1.176-1.942ZM.667 953.667C.3 954.033 0 957.253 0 960.822v6.488l216.85-.557c119.268-.306 217.347-.249 217.953.126.78.481 1.146 16.81 1.249 55.651l.145 54.97-96.348.61c-52.992.34-132.124.42-175.849.18-43.725-.24-98.512-.13-121.75.25l-42.25.7V1091H448.973l.263-68.58c.145-37.725.077-68.775-.153-69.004-.708-.707-447.708-.458-448.416.251ZM746 958.219c-22.888 1.062-38.014 2.562-49.907 4.95-12.161 2.442-18.43 4.85-22.343 8.582-2.494 2.379-2.75 3.281-2.746 9.686.005 9.808 1.774 12.419 11.629 17.159 8.62 4.144 8.467 4.564-2.133 5.864-6.263.77-7.459 1.61-7.485 5.2-.012 1.76-.802 2.3-4.265 2.88-6.952 1.16-7.36 3.2-1.845 9.23l3.904 4.27.346 13.91c.301 12.14.606 14.26 2.395 16.65 1.128 1.51 2.909 3.23 3.959 3.82 1.05.6 4.073 2.51 6.717 4.27 6.253 4.14 13.582 6.83 22.274 8.17 11.24 1.73 41.105 4.91 67 7.13 27.884 2.4 62.187 6.54 67.98 8.22l4.02 1.17-5 .7c-5.556.79-37.043.27-62.464-1.03-9.095-.46-16.691-.69-16.88-.52-.678.64 7.418 2.46 10.945 2.46 1.98.01 4.905.45 6.5.98 4.062 1.37 15.246 2.7 41.899 5.01 27.235 2.36 41.268 4.59 45.689 7.28 3.018 1.84 3.108 2.05 1.405 3.3-6.723 4.91-52.474 10.44-86.094 10.41-36.263-.04-54.536 5.13-69.057 19.53-18.597 18.45-22.935 49.86-10.193 73.81 4.999 9.39 14.464 13.45 36.901 15.79 10.478 1.1 50.949.78 81.349-.63 13.057-.61 13.999.53 2 2.42-13.589 2.15-63.416 4.28-92.045 3.94-24.998-.29-28.343-.53-30.796-2.13-3.666-2.41-8.897-10.75-12.763-20.37-11.353-28.22-11.459-49.72-.389-78.83 1.35-3.55-4.574 4.82-7.579 10.7-7.707 15.11-11.349 29.93-12.48 50.78l-.73 13.48-4.385-4.98c-2.412-2.74-6.359-8.8-8.772-13.48-13.088-25.36-8.835-55.33 11.097-78.19 6.908-7.92 7.265-8.49 3.842-6.06-7.755 5.49-20.613 20.24-26.385 30.25-8.261 14.34-12.665 26.98-14.261 40.94-1.353 11.85-1.587 12.73-3.006 11.31-2.988-2.99-3.904-30.56-1.443-43.41 5.301-27.7 17.914-47.04 45.941-70.45 4.865-4.06 8.536-7.39 8.159-7.39-1.339 0-18.176 9.04-20.076 10.78-1.061.98-4.629 3.86-7.929 6.41-19.899 15.37-34.229 38.42-41.049 66.02-3.11 12.6-2.853 35.51.531 47.29.474 1.65 1.617 5.7 2.54 9s2.824 8.93 4.225 12.5c2.792 7.13 11.032 22.3 12.396 22.83.471.19.857 1.2.857 2.25 0 1.8-.862 1.92-13.445 1.92-39.031 0-126.001 4.8-154.269 8.51-5.89.77-10.932 1.18-11.205.9-.835-.83 5.835-12.37 13.041-22.56 3.753-5.3 14.513-17.64 23.911-27.41l17.087-17.77-3.264-1.37c-1.796-.76-3.414-1.52-3.597-1.71-.183-.18 1.653-5 4.079-10.71 6.795-15.99 7.091-14.11-2.972-18.83-9.697-4.54-9.146-4.7-12.279 3.45-1.058 2.75-3.098 7.63-4.535 10.85-2.25 5.03-2.826 5.67-4.148 4.57-.845-.7-2.193-2.54-2.996-4.1-1.932-3.73-2.744-3.56-4.333.93-.73 2.06-2.833 7.59-4.675 12.29-1.868 4.77-4.458 14.55-5.86 22.15-2.743 14.85-12.006 47.33-14.245 49.95-.835.97-5.106 2.33-10.597 3.36-13.21 2.47-19.514 4.34-25.198 7.48-4.271 2.35-6.967 2.93-18.5 3.95-14.595 1.29-44.636 5.61-49.5 7.12-2.478.77-2.13.85 2 .45 20.799-1.99 31.269-2.56 46.63-2.54 15.656.01 17.895-.19 20-1.83 4.734-3.7 10.815-6.08 20.649-8.08 12.406-2.53 12.213-2.54 12.257.2.035 2.2.085 2.19 2.254-.46 2.062-2.51 3.03-2.78 13.714-3.75 6.323-.57 13.071-1.26 14.996-1.54 7.787-1.12 66.979-4.45 88.5-4.98 12.65-.31 27.05-.77 32-1.03 4.95-.25 16.161-.53 24.913-.61 14.364-.14 16.043.02 17.25 1.67 1.417 1.94 1.854 6.59.587 6.25-.413-.11-2.775.12-5.25.51-18.154 2.85-100.396 6.72-131.317 6.17-6.5-.12-11.45.09-11 .46.449.37 7.792 2.82 16.317 5.43 38.454 11.79 46.075 14.65 68 25.58 15.95 7.95 28 15.75 28 18.13 0 1.06-31.749 8.65-44 10.51-14.241 2.17-63.121 3.04-82.746 1.47-38.421-3.05-58.483-9.32-65.855-20.57-1.459-2.23-1.445-2.8.166-7.02 1.731-4.53 1.726-4.62-.431-6.78-2.082-2.09-3.161-2.21-22.91-2.53-26.106-.43-67.899 2.86-87.224 6.87-15.635 3.24-28.786 9.31-33.112 15.28-3.291 4.55-3.584 7.42-1.258 12.32 2.469 5.21 7.507 8.79 22.87 16.28 33.825 16.48 63.85 24.9 111 31.14 38.606 5.1 97.269 5.25 137 .35 37.542-4.63 65.444-10.96 80-18.15 7.768-3.83 17.011-11.28 20.149-16.24 2.481-3.92 2.851-5.48 2.851-12.01 0-6.28-.48-8.48-2.945-13.5-1.62-3.3-4.958-8.15-7.417-10.78-2.669-2.86-4.103-5.14-3.555-5.67 1.523-1.47 29.242-4.34 36.326-3.76 3.625.3 15.366 1.69 26.091 3.08 57.063 7.43 124.139 10.96 208.5 10.98 66.106.02 102.18-1.59 221.5-9.84 56.95-3.94 108.42-6.85 150.5-8.51 31.74-1.26 81.71-3.71 102-5.01 8.25-.53 29.17-1.65 46.5-2.49 95.01-4.63 238.6-13.71 239.99-15.19.28-.3-9.17-.26-20.99.09-72.23 2.11-144.65 3.06-233 3.07-101.84.01-127.17-.53-213-4.53-23.38-1.09-57.35-2.65-75.5-3.46s-41.1-1.93-51-2.48c-9.9-.56-26.55-1.46-37-2.01-26.488-1.38-64.117-3.88-75.856-5.03-5.421-.53-10.708-.96-11.75-.96-2.644 0-2.432-.89 2.073-8.7 11.375-19.73 17.278-48.04 15.049-72.16-1.554-16.82-7.586-39.92-12.932-49.52-.956-1.72-3.374-6.06-5.375-9.65-7.276-13.07-26.509-33.41-41.694-44.09-4.667-3.28-8.832-6.59-9.256-7.34-.423-.76-.285-2.65.307-4.21s1.042-8.36 1.001-15.13c-.071-11.53.079-12.52 2.429-15.98 3.552-5.23 3.321-9.77-.746-14.71l-3.25-3.94.356-13.585.355-13.581-2.764-3.285c-2.868-3.408-9.684-6.897-17.447-8.93-20.292-5.314-79.695-8.793-119-6.97Zm73 4.828c15.381 1.391 35.231 4.611 39.247 6.367 3.046 1.332 3.094 1.427.753 1.484-1.375.033-10.375-.597-20-1.402-17.084-1.427-50.991-3.918-66-4.848-9.026-.56-35.153.905-43.5 2.439-6.979 1.282-20.545 5.718-22 7.193-.674.683-.362.788.954.32 3.336-1.185 17.153-1.92 20.175-1.073 2.474.693 1.783.981-4.99 2.083-13.101 2.131-12.298 2.818 7.584 6.495 8.402 1.553 28.102 4.692 43.777 6.974 15.675 2.283 29.85 4.737 31.5 5.454 2.635 1.145 1.054 1.312-13 1.37-34.275.141-90.072-4.628-104.69-8.947-6.914-2.043-13.81-7.165-13.81-10.256 0-5.741 20.851-11.351 50.5-13.588 16.214-1.223 80.199-1.268 93.5-.065Zm-133.251 47.123c2.887 1.02 17.287 3.85 32 6.28 14.713 2.44 29.226 4.86 32.251 5.37 9.897 1.69-19.497 1.37-32.216-.35-20.854-2.82-32.964-6.07-37.815-10.15-3.279-2.76-3.997-4.98-1.219-3.77.962.41 4.112 1.59 6.999 2.62Zm13.751 16.74c9.311.93 21.882 1.63 73 4.08 11 .52 21.013 1.24 22.25 1.6 3.664 1.05 2.571 2.4-2 2.48-2.337.04-5.092.4-6.121.81-1.722.67-1.665.87.715 2.43 1.422.93 3.051 1.69 3.621 1.69.569 0 1.035.5 1.035 1.11 0 2.07-65.649-.8-85.5-3.73-12.698-1.88-17.312-3.56-21.428-7.81-3.91-4.03-3.452-5.78 1.186-4.53 1.783.48 7.742 1.32 13.242 1.87Zm-.815 17.52c19.235 4.02 46.085 7.2 62.815 7.44 14.848.2 27.439 1.22 28.086 2.27.293.47-.382.86-1.498.86-2.409 0-12.569 4.35-13.436 5.76-.333.53.285 1.78 1.372 2.76 1.087.99 1.976 2.17 1.976 2.64 0 1.12-15.971 1.08-25.178-.07-4.027-.5-12.047-1.43-17.822-2.06-25.17-2.74-38.089-6.85-42.072-13.38-1.705-2.8-2.652-7.65-1.493-7.65.239 0 3.501.64 7.25 1.43Zm223.293 172.1c-1.735 2.09-15.977 9.69-24.373 13-15.56 6.15-34.565 10.64-53.605 12.67-12.809 1.37-70 2.2-70 1.01 0-.5 4.163-1.2 9.25-1.54 13.473-.91 28.648-2.44 41.75-4.2 32.183-4.33 43.29-6.58 62.5-12.65 11.447-3.62 32.445-9.48 34.872-9.73.48-.05.303.6-.394 1.44ZM371 1301.52c0 2.73.916 4.52 4.065 7.93 10.329 11.21 50.986 26.08 88.935 32.54 25.402 4.32 68.395 7.13 96.25 6.29 19.188-.58 21.656.1 13.431 3.74-15.62 6.91-57.957 12.06-98.681 12-44.982-.06-79.758-3.61-117.5-12.01-40.344-8.97-66.346-20.66-66.468-29.89-.049-3.64 3.748-8.97 7.819-10.99 7.074-3.51 26.656-7.93 46.649-10.53 17.127-2.23 17.604-2.28 21.75-2.45 3.652-.15 3.75-.06 3.75 3.37Z" fill="#000"/></svg>